<svg width="640" height="520" viewBox="0 0 640 520" fill="none" xmlns="http://www.w3.org/2000/svg">
  <rect x="32" y="60" width="400" height="280" rx="32" fill="url(#paint0_linear)" opacity="0.9"/>
  <rect x="80" y="100" width="400" height="280" rx="32" fill="url(#paint1_linear)" opacity="0.65"/>
  <rect x="140" y="138" width="400" height="280" rx="32" fill="url(#paint2_linear)" opacity="0.75"/>
  <circle cx="480" cy="128" r="70" fill="url(#paint3_radial)" opacity="0.95"/>
  <circle cx="210" cy="412" r="54" fill="url(#paint4_radial)" opacity="0.95"/>
  <path d="M320 220C345 220 364 239 364 264C364 289 345 308 320 308C295 308 276 289 276 264C276 239 295 220 320 220Z" fill="white" opacity="0.8"/>
  <path d="M230 266C252 229 327 226 343 258C360 290 317 356 273 350C229 344 208 302 230 266Z" fill="white" opacity="0.3"/>
  <rect x="210" y="180" width="220" height="24" rx="12" fill="white" opacity="0.6"/>
  <rect x="210" y="360" width="170" height="18" rx="9" fill="white" opacity="0.4"/>
  <defs>
    <linearGradient id="paint0_linear" x1="32" y1="60" x2="460" y2="340" gradientUnits="userSpaceOnUse">
      <stop stop-color="#C3A5F9"/>
      <stop offset="1" stop-color="#9B5DE5"/>
    </linearGradient>
    <linearGradient id="paint1_linear" x1="80" y1="100" x2="480" y2="380" gradientUnits="userSpaceOnUse">
      <stop stop-color="#F8E7FF"/>
      <stop offset="1" stop-color="#B861E8" stop-opacity="0.75"/>
    </linearGradient>
    <linearGradient id="paint2_linear" x1="140" y1="138" x2="540" y2="418" gradientUnits="userSpaceOnUse">
      <stop stop-color="#BEEBD6"/>
      <stop offset="1" stop-color="#32B67A" stop-opacity="0.65"/>
    </linearGradient>
    <radialGradient id="paint3_radial" cx="0" cy="0" r="1" gradientUnits="userSpaceOnUse" gradientTransform="translate(480 128) rotate(90) scale(70)">
      <stop stop-color="#FFFFFF"/>
      <stop offset="1" stop-color="#9B5DE5" stop-opacity="0"/>
    </radialGradient>
    <radialGradient id="paint4_radial" cx="0" cy="0" r="1" gradientUnits="userSpaceOnUse" gradientTransform="translate(210 412) rotate(90) scale(54)">
      <stop stop-color="#FFFFFF"/>
      <stop offset="1" stop-color="#32B67A" stop-opacity="0"/>
    </radialGradient>
  </defs>
</svg>
